<?xml version="1.0" encoding="UTF-8" standalone="no"?><!DOCTYPE svg PUBLIC "-//W3C//DTD SVG 1.1//EN" "http://www.w3.org/Graphics/SVG/1.1/DTD/svg11.dtd"><svg width="100%" height="100%" viewBox="0 0 1744 840" version="1.1" xmlns="http://www.w3.org/2000/svg" xmlns:xlink="http://www.w3.org/1999/xlink" xml:space="preserve" xmlns:serif="http://www.serif.com/" style="fill-rule:evenodd;clip-rule:evenodd;stroke-linecap:round;stroke-linejoin:round;stroke-miterlimit:1.5;"><rect id="Prancheta2" x="0" y="0" width="1743.38" height="840" style="fill:none;"/><ellipse cx="1244.49" cy="251.263" rx="32.662" ry="32.774" style="fill:#ffc300;"/><circle cx="234.524" cy="314.912" r="31.847" style="fill:#ffc300;"/><path d="M234.524,403.501l0,-79.785" style="fill:none;stroke:#fff;stroke-width:20.19px;"/><path d="M836.225,442.938l0,-138.539" style="fill:none;stroke:#fff;stroke-width:20.19px;"/><circle cx="293.858" cy="442.96" r="71.643" style="fill:none;stroke:#fff;stroke-width:20.19px;"/><circle cx="907.868" cy="442.96" r="71.643" style="fill:none;stroke:#fff;stroke-width:20.19px;"/><circle cx="469.463" cy="442.96" r="71.643" style="fill:none;stroke:#fff;stroke-width:20.2px;"/><path d="M686.03,484.5l0,-56.083c0,-31.56 25.584,-57.145 57.145,-57.145c31.56,0 57.145,25.585 57.145,57.145l0,86.187" style="fill:none;stroke:#fff;stroke-width:20.2px;"/><path d="M571.739,514.604l0,-86.187c0,-31.56 25.585,-57.145 57.145,-57.145l0.001,0c31.56,0 57.145,25.585 57.145,57.145l0,56.083" style="fill:none;stroke:#fff;stroke-width:20.2px;"/><ellipse cx="1353.29" cy="450.896" rx="129.904" ry="130.352" style="stroke:#fff;stroke-width:1px;stroke-linecap:butt;stroke-miterlimit:2;"/><path d="M1235.69,374.82l0,-61.364c0,-2.65 1.05,-5.191 2.921,-7.068l18.683,-18.748l-18.683,-18.748c-3.902,-3.915 -3.891,-10.26 0.024,-14.162c3.915,-3.901 10.26,-3.89 14.161,0.025l25.728,25.816c3.894,3.908 3.894,10.229 0,14.137l-22.807,22.886l0,32.712c25.223,-24.624 59.647,-39.793 97.571,-39.793c77.222,0 139.935,62.894 139.935,140.383c0,77.488 -62.713,140.382 -139.935,140.382c-77.223,0 -139.935,-62.894 -139.935,-140.382c0,-28.028 8.205,-54.146 22.337,-76.076Zm15.907,12.375c-11.52,18.478 -18.182,40.315 -18.182,63.701c0,66.397 53.704,120.32 119.873,120.32c66.169,0 119.873,-53.923 119.873,-120.32c0,-66.398 -53.704,-120.321 -119.873,-120.321c-40.377,0 -76.112,20.078 -97.835,50.815c-0.554,2.369 -1.951,4.414 -3.856,5.805Z" style="fill:#fff;"/><path d="M1241.65,562.967c-12.957,-13.001 -23.191,-27.705 -30.7,-43.399c-2.385,-4.985 -8.369,-7.096 -13.355,-4.711c-4.985,2.386 -7.096,8.37 -4.71,13.355c8.458,17.679 19.984,34.247 34.579,48.892c3.901,3.915 10.247,3.926 14.161,0.025c3.915,-3.902 3.926,-10.247 0.025,-14.162Z" style="fill:#fff;"/><path d="M1464.93,338.824c12.957,13.001 23.191,27.705 30.7,43.399c2.385,4.985 8.369,7.096 13.354,4.711c4.986,-2.385 7.097,-8.369 4.711,-13.355c-8.458,-17.679 -19.984,-34.246 -34.579,-48.892c-3.901,-3.915 -10.247,-3.926 -14.161,-0.024c-3.915,3.901 -3.926,10.246 -0.025,14.161Z" style="fill:#fff;"/></svg>