<?xml version="1.0" encoding="UTF-8" standalone="no"?><!DOCTYPE svg PUBLIC "-//W3C//DTD SVG 1.1//EN" "http://www.w3.org/Graphics/SVG/1.1/DTD/svg11.dtd"><svg width="100%" height="100%" viewBox="0 0 787 242" version="1.1" xmlns="http://www.w3.org/2000/svg" xmlns:xlink="http://www.w3.org/1999/xlink" xml:space="preserve" xmlns:serif="http://www.serif.com/" style="fill-rule:evenodd;clip-rule:evenodd;stroke-linecap:round;stroke-linejoin:round;stroke-miterlimit:1.5;"><circle cx="31.847" cy="31.847" r="31.847" style="fill:#ffc300;"/><path d="M31.847,120.436l-0,-79.785" style="fill:none;stroke:#000;stroke-width:20.19px;"/><path d="M633.548,159.873l-0,-138.54" style="fill:none;stroke:#000;stroke-width:20.19px;"/><circle cx="91.181" cy="159.895" r="71.643" style="fill:none;stroke:#000;stroke-width:20.19px;"/><circle cx="705.191" cy="159.895" r="71.643" style="fill:none;stroke:#000;stroke-width:20.19px;"/><circle cx="266.785" cy="159.895" r="71.643" style="fill:none;stroke:#000;stroke-width:20.2px;"/><path d="M483.352,201.435l0,-56.083c0,-31.561 25.585,-57.145 57.145,-57.145l0,-0c31.561,-0 57.145,25.584 57.145,57.145l0,86.187" style="fill:none;stroke:#000;stroke-width:20.2px;"/><path d="M369.062,231.539l-0,-86.187c-0,-31.561 25.585,-57.145 57.145,-57.145l0,-0c31.56,-0 57.145,25.584 57.145,57.145l0,56.083" style="fill:none;stroke:#000;stroke-width:20.2px;"/></svg>