<?xml version="1.0" encoding="UTF-8" standalone="no"?><!DOCTYPE svg PUBLIC "-//W3C//DTD SVG 1.1//EN" "http://www.w3.org/Graphics/SVG/1.1/DTD/svg11.dtd"><svg width="100%" height="100%" viewBox="0 0 503 503" version="1.1" xmlns="http://www.w3.org/2000/svg" xmlns:xlink="http://www.w3.org/1999/xlink" xml:space="preserve" xmlns:serif="http://www.serif.com/" style="fill-rule:evenodd;clip-rule:evenodd;stroke-linejoin:round;stroke-miterlimit:2;"><path d="M251.172,0l73.567,73.567l104.039,-0l-0,104.039l73.566,73.566l-73.566,73.567l-0,104.039l-104.039,-0l-73.567,73.566l-73.566,-73.566l-104.039,-0l-0,-104.039l-73.567,-73.567l73.567,-73.566l-0,-104.039l104.039,-0l73.566,-73.567Zm0,88.387c89.844,0 162.785,72.942 162.785,162.785c0,89.844 -72.941,162.785 -162.785,162.785c-89.843,0 -162.785,-72.941 -162.785,-162.785c0,-89.843 72.942,-162.785 162.785,-162.785Z" style="fill:#fff;"/></svg>