<?xml version="1.0" encoding="UTF-8" standalone="no"?><!DOCTYPE svg PUBLIC "-//W3C//DTD SVG 1.1//EN" "http://www.w3.org/Graphics/SVG/1.1/DTD/svg11.dtd"><svg width="100%" height="100%" viewBox="0 0 91 103" version="1.1" xmlns="http://www.w3.org/2000/svg" xmlns:xlink="http://www.w3.org/1999/xlink" xml:space="preserve" xmlns:serif="http://www.serif.com/" style="fill-rule:evenodd;clip-rule:evenodd;stroke-linejoin:round;stroke-miterlimit:2;"><path d="M80.021,0l-69.403,0c-5.853,0 -10.618,4.765 -10.618,10.618l0,69.403c0,5.853 4.765,10.618 10.618,10.618l58.734,-0l-2.745,-9.478l6.629,6.111l6.267,5.749l11.188,9.686l-0,-92.089c-0.052,-5.853 -4.817,-10.618 -10.67,-10.618Zm-19.992,67.073c-0,-0 -1.865,-2.227 -3.419,-4.144c6.785,-1.916 9.375,-6.111 9.375,-6.111c-2.123,1.398 -4.143,2.382 -5.956,3.055c-2.59,1.088 -5.076,1.761 -7.51,2.228c-4.972,0.932 -9.53,0.673 -13.415,-0.052c-2.952,-0.57 -5.49,-1.347 -7.613,-2.227c-1.192,-0.466 -2.487,-1.036 -3.781,-1.761c-0.156,-0.104 -0.311,-0.156 -0.467,-0.259c-0.103,-0.052 -0.155,-0.104 -0.207,-0.104c-0.932,-0.518 -1.45,-0.88 -1.45,-0.88c0,-0 2.486,4.091 9.064,6.059c-1.554,1.969 -3.47,4.248 -3.47,4.248c-11.447,-0.363 -15.797,-7.821 -15.797,-7.821c-0,-16.522 7.458,-29.937 7.458,-29.937c7.458,-5.542 14.502,-5.387 14.502,-5.387l0.518,0.622c-9.323,2.641 -13.57,6.733 -13.57,6.733c0,0 1.14,-0.621 3.056,-1.45c5.542,-2.434 9.944,-3.056 11.757,-3.263c0.311,-0.052 0.57,-0.104 0.881,-0.104c3.159,-0.414 6.733,-0.518 10.462,-0.103c4.92,0.569 10.203,2.02 15.59,4.92c-0,0 -4.092,-3.884 -12.897,-6.526l0.725,-0.829c0,0 7.096,-0.155 14.503,5.387c-0,0 7.458,13.415 7.458,29.937c-0,-0.052 -4.351,7.406 -15.797,7.769Zm-5.18,-23.981c-2.952,0 -5.282,2.538 -5.282,5.698c-0,3.159 2.382,5.697 5.282,5.697c2.953,-0 5.283,-2.538 5.283,-5.697c0,-3.16 -2.382,-5.698 -5.283,-5.698Zm-18.904,0c-2.952,0 -5.283,2.538 -5.283,5.698c-0,3.159 2.382,5.697 5.283,5.697c2.952,-0 5.283,-2.538 5.283,-5.697c0.052,-3.16 -2.331,-5.698 -5.283,-5.698Z" style="fill:#fff;fill-rule:nonzero;"/></svg>