<?xml version="1.0" encoding="UTF-8" standalone="no"?><!DOCTYPE svg PUBLIC "-//W3C//DTD SVG 1.1//EN" "http://www.w3.org/Graphics/SVG/1.1/DTD/svg11.dtd"><svg width="100%" height="100%" viewBox="0 0 113 113" version="1.1" xmlns="http://www.w3.org/2000/svg" xmlns:xlink="http://www.w3.org/1999/xlink" xml:space="preserve" xmlns:serif="http://www.serif.com/" style="fill-rule:evenodd;clip-rule:evenodd;stroke-linejoin:round;stroke-miterlimit:2;"><path d="M55.269,0l1.774,0c7.778,0.136 15.527,1.886 22.592,5.15c5.71,2.629 10.973,6.226 15.494,10.593c6.502,6.261 11.45,14.117 14.289,22.684c1.366,4.103 2.254,8.364 2.642,12.671c0.128,1.515 0.22,3.034 0.26,4.554l0,1.295c-0.088,1.912 -0.186,3.825 -0.414,5.726c-0.858,7.37 -3.201,14.562 -6.845,21.024c-3.036,5.394 -6.972,10.277 -11.597,14.39c-7.439,6.638 -16.68,11.226 -26.465,13.142c-3.34,0.672 -6.743,0.976 -10.145,1.091l-1.484,0c-2.133,-0.091 -4.268,-0.212 -6.385,-0.492c-7.815,-0.999 -15.411,-3.673 -22.13,-7.787c-4.994,-3.051 -9.503,-6.889 -13.313,-11.33c-4.117,-4.792 -7.413,-10.285 -9.706,-16.172c-2.425,-6.199 -3.714,-12.832 -3.836,-19.486l0,-1.786c0.091,-4.851 0.785,-9.692 2.108,-14.362c1.85,-6.567 4.91,-12.79 8.984,-18.264c3.561,-4.791 7.893,-9.007 12.778,-12.437c5.28,-3.711 11.205,-6.501 17.43,-8.205c4.548,-1.252 9.254,-1.909 13.969,-1.999Zm20.77,23.494c1.136,-0.876 2.602,-1.31 4.032,-1.186c1.336,0.109 2.63,0.695 3.587,1.635c0.975,0.946 1.599,2.244 1.73,3.596c0.148,1.451 -0.274,2.951 -1.162,4.109c-0.902,1.192 -2.281,2.012 -3.761,2.231c-1.551,0.241 -3.191,-0.18 -4.431,-1.145c-1.358,-1.033 -2.213,-2.687 -2.27,-4.393c-4.066,-0.87 -8.129,-1.756 -12.199,-2.607c-0.969,4.581 -1.956,9.156 -2.931,13.735c-0.283,1.269 -0.523,2.551 -0.834,3.811c0.008,0.015 0.021,0.042 0.028,0.055c0.19,-0.072 0.394,-0.035 0.591,-0.027c4.293,0.223 8.563,1.022 12.614,2.468c3.085,1.092 6.027,2.591 8.708,4.468c1.365,-1.35 3.233,-2.165 5.145,-2.288c1.634,-0.112 3.296,0.288 4.703,1.124c1.394,0.822 2.53,2.07 3.22,3.534c1.152,2.398 1.028,5.353 -0.317,7.648c-0.842,1.469 -2.149,2.661 -3.686,3.373c-0.062,0.145 0.028,0.312 0.031,0.466c0.373,2.784 -0.036,5.654 -1.092,8.252c-1.095,2.718 -2.861,5.132 -4.964,7.158c-2.376,2.29 -5.176,4.109 -8.15,5.522c-3.712,1.756 -7.705,2.886 -11.765,3.469c-5.432,0.77 -11.002,0.6 -16.367,-0.554c-3.209,-0.696 -6.346,-1.753 -9.287,-3.216c-2.774,-1.382 -5.381,-3.129 -7.611,-5.289c-2.138,-2.068 -3.922,-4.54 -5.008,-7.32c-1.041,-2.669 -1.422,-5.622 -0.937,-8.455c-1.376,-0.661 -2.6,-1.66 -3.439,-2.944c-1.138,-1.702 -1.598,-3.841 -1.253,-5.859c0.29,-1.788 1.201,-3.465 2.538,-4.685c1.492,-1.378 3.514,-2.162 5.545,-2.15c2.086,-0.005 4.15,0.839 5.652,2.284c3.06,-2.193 6.507,-3.813 10.091,-4.946c3.924,-1.233 8.023,-1.899 12.134,-2.013c1.43,-6.586 2.797,-13.186 4.216,-19.775c0.198,-0.705 1.005,-1.114 1.7,-0.919c4.501,0.959 9.008,1.893 13.504,2.87c0.431,-0.776 0.977,-1.503 1.695,-2.037Zm-33.081,51.431c-0.975,0.278 -1.417,1.609 -0.736,2.386c1.294,1.378 3.011,2.284 4.769,2.934c1.667,0.606 3.41,0.982 5.166,1.217c3.652,0.483 7.396,0.328 10.984,-0.515c2.498,-0.611 4.998,-1.613 6.87,-3.431c0.659,-0.62 0.622,-1.829 -0.118,-2.37c-0.564,-0.434 -1.426,-0.373 -1.926,0.132c-0.947,0.959 -2.16,1.603 -3.409,2.077c-1.629,0.613 -3.346,0.96 -5.07,1.17c-3.384,0.398 -6.854,0.196 -10.146,-0.699c-1.773,-0.505 -3.553,-1.237 -4.887,-2.548c-0.385,-0.381 -0.983,-0.525 -1.497,-0.353Zm25.14,-18.643c-1.395,0.215 -2.698,0.963 -3.591,2.056c-0.844,1.015 -1.32,2.325 -1.327,3.646c-0.017,1.258 0.391,2.516 1.144,3.523c0.77,1.043 1.896,1.82 3.149,2.155c1.404,0.387 2.953,0.223 4.24,-0.46c1.196,-0.624 2.16,-1.676 2.676,-2.923c0.585,-1.394 0.594,-3.019 0.024,-4.42c-0.527,-1.318 -1.556,-2.425 -2.83,-3.048c-1.07,-0.533 -2.306,-0.714 -3.485,-0.529Zm-25.997,-0.018c-1.305,0.266 -2.507,0.999 -3.344,2.035c-0.803,0.979 -1.268,2.229 -1.302,3.495c-0.042,1.257 0.338,2.523 1.069,3.547c0.833,1.181 2.121,2.037 3.538,2.33c1.423,0.309 2.96,0.059 4.208,-0.695c1.278,-0.759 2.243,-2.025 2.631,-3.46c0.37,-1.34 0.242,-2.81 -0.364,-4.061c-0.598,-1.257 -1.664,-2.283 -2.943,-2.833c-1.09,-0.475 -2.328,-0.597 -3.493,-0.358Z" style="fill:#fff;"/></svg>