<?xml version="1.0" encoding="UTF-8" standalone="no"?><!DOCTYPE svg PUBLIC "-//W3C//DTD SVG 1.1//EN" "http://www.w3.org/Graphics/SVG/1.1/DTD/svg11.dtd"><svg width="100%" height="100%" viewBox="0 0 113 113" version="1.1" xmlns="http://www.w3.org/2000/svg" xmlns:xlink="http://www.w3.org/1999/xlink" xml:space="preserve" xmlns:serif="http://www.serif.com/" style="fill-rule:evenodd;clip-rule:evenodd;stroke-linejoin:round;stroke-miterlimit:2;"><path d="M56.16,0c30.996,0 56.16,25.164 56.16,56.16c0,30.996 -25.164,56.16 -56.16,56.16c-30.996,0 -56.16,-25.164 -56.16,-56.16c0,-30.996 25.164,-56.16 56.16,-56.16Zm-17.245,63.758l4.811,15.722c0.623,1.719 0.323,2.409 2.096,2.42l0.042,0c1.404,0 2.024,-0.642 2.808,-1.404l7.039,-6.343l13.74,10.152c2.583,1.425 4.447,0.687 5.09,-2.398l9.213,-43.413c0.943,-3.781 -1.442,-5.497 -3.913,-4.375l-54.096,20.859c-3.692,1.482 -3.67,3.542 -0.673,4.459l13.882,4.334l-0.039,-0.013Z" style="fill:#fff;"/><path d="M45.864,81.9c1.404,0 2.024,-0.642 2.808,-1.404l7.039,-6.343l-8.892,-6.569l-0.955,14.316Z" style="fill:#fff;fill-opacity:0.54;fill-rule:nonzero;"/><path d="M38.915,63.758l0.039,0.013l32.139,-20.276c1.518,-0.921 2.91,-0.426 1.768,0.588l-26.042,23.501l-0.955,14.316c-1.82,0 -1.51,-0.687 -2.138,-2.42l-4.811,-15.722Z" style="fill:#fff;fill-opacity:0.27;fill-rule:nonzero;"/></svg>