<?xml version="1.0" encoding="UTF-8" standalone="no"?><!DOCTYPE svg PUBLIC "-//W3C//DTD SVG 1.1//EN" "http://www.w3.org/Graphics/SVG/1.1/DTD/svg11.dtd"><svg width="100%" height="100%" viewBox="0 0 100 82" version="1.1" xmlns="http://www.w3.org/2000/svg" xmlns:xlink="http://www.w3.org/1999/xlink" xml:space="preserve" xmlns:serif="http://www.serif.com/" style="fill-rule:evenodd;clip-rule:evenodd;stroke-linejoin:round;stroke-miterlimit:2;"><path id="path5" d="M99.95,9.615c-3.677,1.631 -7.629,2.733 -11.777,3.229c4.234,-2.538 7.486,-6.556 9.016,-11.345c-3.962,2.351 -8.351,4.057 -13.022,4.976c-3.74,-3.985 -9.069,-6.475 -14.967,-6.475c-11.325,0 -20.507,9.181 -20.507,20.505c0,1.608 0.182,3.173 0.531,4.674c-17.042,-0.856 -32.152,-9.019 -42.266,-21.426c-1.765,3.029 -2.776,6.551 -2.776,10.309c-0,7.115 3.62,13.391 9.122,17.068c-3.361,-0.106 -6.523,-1.029 -9.288,-2.565c-0.002,0.086 -0.002,0.172 -0.002,0.258c0,9.935 7.069,18.223 16.449,20.108c-1.72,0.469 -3.532,0.719 -5.402,0.719c-1.321,-0 -2.606,-0.129 -3.858,-0.368c2.61,8.147 10.182,14.075 19.156,14.24c-7.018,5.5 -15.86,8.779 -25.467,8.779c-1.656,-0 -3.288,-0.098 -4.892,-0.287c9.075,5.819 19.854,9.213 31.434,9.213c37.718,0 58.344,-31.246 58.344,-58.344c0,-0.889 -0.02,-1.773 -0.059,-2.654c4.006,-2.89 7.482,-6.501 10.231,-10.614l0,0Z" style="fill:#fff;fill-rule:nonzero;"/></svg>